<?xml version="1.0" standalone="no"?>
<!DOCTYPE svg PUBLIC "-//W3C//DTD SVG 20010904//EN"
 "http://www.w3.org/TR/2001/REC-SVG-20010904/DTD/svg10.dtd">
<svg version="1.0" xmlns="http://www.w3.org/2000/svg"
 width="1080.000000pt" height="1080.000000pt" viewBox="0 0 1080.000000 1080.000000"
 preserveAspectRatio="xMidYMid meet">

<g transform="translate(0.000000,1080.000000) scale(0.100000,-0.100000)"
fill="#000000" stroke="none">
<path d="M3380 5400 c0 -547 3 -830 10 -830 7 0 10 283 10 830 0 547 -3 830
-10 830 -7 0 -10 -283 -10 -830z"/>
<path d="M1736 5795 c-74 -69 -141 -136 -150 -150 -14 -21 -16 -71 -16 -386
l0 -361 26 -49 c44 -80 41 -79 439 -79 378 0 383 1 424 59 27 38 41 141 18
141 -36 0 -47 -12 -47 -52 0 -28 -7 -46 -25 -63 l-24 -25 -346 0 -346 0 -24
25 -25 24 0 359 0 359 84 5 c134 9 176 52 176 183 l0 65 244 0 245 0 20 -26
c15 -19 21 -41 21 -74 0 -48 9 -60 47 -60 13 0 15 11 11 64 -7 79 -30 120 -83
146 -38 18 -63 20 -288 20 l-247 0 -134 -125z"/>
<path d="M4690 5850 c0 -5 16 -10 35 -10 l35 0 0 -440 0 -440 -35 0 c-19 0
-35 -4 -35 -10 0 -6 65 -10 175 -10 110 0 175 4 175 10 0 6 -13 10 -30 10
l-30 0 0 140 c0 180 9 182 89 23 77 -156 79 -163 47 -163 -14 0 -26 -4 -26
-10 0 -6 63 -10 170 -10 107 0 170 4 170 10 0 6 -10 10 -23 10 -19 0 -38 30
-129 208 l-107 207 75 63 c64 54 79 62 114 62 22 0 40 5 40 10 0 13 -227 13
-235 1 -3 -6 19 -11 52 -13 l58 -3 -133 -110 c-73 -60 -139 -111 -147 -113
-13 -3 -15 36 -15 292 l0 296 -145 0 c-90 0 -145 -4 -145 -10z"/>
<path d="M5830 5850 c0 -5 16 -10 35 -10 l35 0 0 -440 0 -440 -36 0 c-21 0
-33 -4 -29 -10 4 -6 75 -10 181 -10 109 0 174 4 174 10 0 6 -13 10 -30 10
l-30 0 0 263 c0 144 -3 346 -7 450 l-6 187 -144 0 c-89 0 -143 -4 -143 -10z"/>
<path d="M6210 5850 c0 -5 18 -10 40 -10 l40 0 0 -440 0 -440 -35 0 c-19 0
-35 -4 -35 -10 0 -6 67 -10 180 -10 113 0 180 4 180 10 0 6 -16 10 -35 10
l-35 0 0 450 0 450 -150 0 c-93 0 -150 -4 -150 -10z"/>
<path d="M5565 5816 c-61 -27 -76 -127 -26 -177 26 -26 36 -29 90 -29 48 0 65
5 86 23 52 44 42 152 -16 182 -34 18 -94 19 -134 1z"/>
<path d="M4207 5786 c-198 -56 -262 -313 -111 -446 44 -38 72 -51 215 -96 114
-36 150 -58 175 -107 20 -37 13 -100 -13 -129 -51 -57 -146 -67 -230 -24 -64
32 -141 107 -185 181 -18 30 -36 55 -41 55 -8 0 1 -280 9 -289 2 -3 14 5 25
18 12 12 28 20 37 17 128 -38 300 -43 375 -12 54 23 112 79 138 134 32 66 32
189 1 248 -44 85 -100 117 -306 179 -116 35 -156 70 -156 138 0 82 70 126 177
114 60 -7 117 -47 175 -127 27 -36 54 -74 62 -85 14 -18 15 -8 16 101 0 66 -3
124 -7 127 -3 4 -12 -1 -19 -10 -11 -17 -16 -17 -81 1 -91 24 -196 29 -256 12z"/>
<path d="M6960 5790 c-126 -26 -233 -116 -281 -237 -21 -51 -23 -75 -23 -198
0 -122 3 -147 22 -196 48 -121 156 -199 302 -219 81 -12 109 -9 242 22 81 19
89 19 119 4 18 -9 34 -16 36 -16 1 0 3 77 3 170 0 162 1 170 19 170 11 0 23 5
26 10 4 7 -53 10 -164 10 -100 0 -171 -4 -171 -9 0 -6 17 -11 38 -13 l37 -3 0
-130 c0 -163 -5 -180 -51 -195 -70 -23 -145 13 -183 89 -37 73 -46 140 -46
326 1 190 13 261 56 332 22 35 90 73 132 73 73 0 147 -59 216 -172 27 -43 51
-75 53 -71 2 4 2 61 0 125 -4 117 -4 117 -26 107 -16 -8 -40 -6 -85 6 -78 20
-211 27 -271 15z"/>
<path d="M8293 5702 l-103 -26 0 -78 0 -78 -32 -1 c-28 -2 -29 -2 -8 -6 50 -9
50 -11 50 -248 0 -215 1 -223 23 -256 31 -47 69 -63 157 -67 100 -4 154 21
188 90 13 26 22 55 20 65 -3 12 -8 5 -16 -21 -16 -56 -58 -96 -99 -96 -58 0
-64 31 -61 298 l3 227 80 6 80 5 -82 2 -83 2 0 105 c0 58 -3 105 -7 104 -5 -1
-54 -13 -110 -27z"/>
<path d="M1984 5625 c-20 -51 46 -62 91 -15 l29 30 -57 0 c-42 0 -59 -4 -63
-15z"/>
<path d="M2242 5621 c-134 -46 -227 -192 -207 -324 9 -60 60 -161 98 -193 96
-82 222 -100 335 -49 51 23 65 25 77 15 8 -7 15 -18 15 -24 0 -18 245 -256
263 -256 10 0 26 9 37 20 11 11 20 27 20 37 0 17 -237 263 -254 263 -5 0 -17
7 -26 15 -16 14 -15 19 12 72 23 47 28 68 28 133 0 66 -4 86 -31 139 -69 138
-223 202 -367 152z m218 -93 c160 -97 141 -340 -32 -412 -72 -30 -180 -14
-238 36 -95 80 -111 222 -37 320 46 60 105 88 187 88 57 0 73 -5 120 -32z"/>
<path d="M2290 5472 c-18 -15 -24 -32 -28 -78 -2 -32 -9 -65 -15 -72 -12 -15
6 -32 36 -32 36 0 17 -30 -28 -41 -25 -6 -48 -15 -50 -20 -3 -4 11 -20 31 -35
54 -41 128 -45 189 -9 25 14 45 31 43 37 -2 6 -24 18 -48 27 -52 19 -62 38
-23 43 22 2 27 7 25 23 -2 11 -6 40 -8 65 -8 78 -12 87 -45 99 -43 15 -53 14
-79 -7z"/>
<path d="M7655 5516 c-90 -22 -125 -61 -125 -138 0 -62 29 -88 96 -88 27 0 56
6 65 13 41 32 54 115 19 124 -43 11 -32 75 15 87 30 8 59 -6 70 -31 4 -10 10
-70 13 -134 l4 -116 -95 -6 c-165 -11 -217 -46 -217 -148 0 -101 61 -145 188
-137 59 4 68 7 93 37 l28 34 31 -31 c21 -21 44 -33 76 -38 71 -10 141 0 168
25 26 24 46 83 45 127 0 21 -4 15 -13 -23 -13 -51 -30 -83 -47 -83 -4 0 -15 7
-23 16 -13 13 -16 43 -16 174 0 193 -11 253 -54 296 -51 51 -200 70 -321 40z
m153 -382 c2 -60 -2 -87 -15 -114 -19 -37 -50 -51 -64 -28 -13 19 -11 153 2
182 11 24 45 47 64 42 6 -1 11 -38 13 -82z"/>
<path d="M8825 5516 c-63 -20 -99 -42 -134 -81 -52 -59 -64 -99 -65 -205 -1
-80 3 -102 22 -142 30 -61 93 -114 156 -133 60 -18 184 -20 238 -3 50 15 114
72 133 121 21 52 4 46 -23 -8 -29 -59 -84 -96 -148 -97 -105 -2 -145 50 -152
200 l-4 92 172 0 173 0 -6 60 c-9 103 -65 175 -156 200 -49 13 -157 11 -206
-4z m141 -41 c8 -20 14 -67 14 -114 l0 -79 -61 -4 c-43 -2 -63 1 -66 9 -3 7
-4 48 -2 91 5 95 24 132 70 132 25 0 32 -6 45 -35z"/>
<path d="M5440 5510 c0 -5 18 -10 40 -10 l40 0 0 -270 0 -270 -35 0 c-19 0
-35 -4 -35 -10 0 -6 67 -10 180 -10 113 0 180 4 180 10 0 6 -16 10 -35 10
l-35 0 0 280 0 280 -150 0 c-93 0 -150 -4 -150 -10z"/>
<path d="M1743 5503 c-7 -2 -13 -16 -13 -29 l0 -24 124 0 c120 0 124 1 130 23
3 12 6 25 6 30 0 8 -227 9 -247 0z"/>
<path d="M1734 5355 c-15 -38 1 -45 111 -45 l105 0 0 30 0 30 -105 0 c-85 0
-107 -3 -111 -15z"/>
<path d="M1742 5231 c-8 -5 -12 -17 -10 -27 3 -17 15 -19 126 -22 127 -3 133
-1 112 39 -10 17 -22 19 -113 19 -56 0 -108 -4 -115 -9z"/>
<path d="M1737 5093 c-13 -12 -7 -41 9 -47 23 -9 324 -7 324 2 -1 4 -9 17 -19
30 -18 21 -26 22 -163 22 -80 0 -148 -3 -151 -7z"/>
<path d="M1730 4955 c-10 -12 -10 -18 0 -30 10 -13 51 -15 250 -15 199 0 240
2 250 15 10 12 10 18 0 30 -10 13 -51 15 -250 15 -199 0 -240 -2 -250 -15z"/>
</g>
</svg>
